#Comment line ignore any data following # character 
#Hierarchical Translation and Rotation (.htr) file 
[Header]	
#Header keywords are followed by a single value 
FileType HTR		#Single word string
DataType HTRS		#Translation followed by rotation and scale data
FileVersion 1		#integer
NumSegments 84		#integer
NumFrames 2		#integer
DataFrameRate 30		#integer, data frame rate in this file
EulerRotationOrder ZYX
CalibrationUnits mm
RotationUnits Degrees
GlobalAxisofGravity Y
BoneLengthAxis Y
ScaleFactor 1.00
[SegmentNames&Hierarchy]
#CHILD	PARENT
MASTER GLOBAL
root MASTER
chest root
L_mid_tent01 root
R_mid_tent01 root
spine01 root
Bip01_Neck chest
L_humerus chest
R_humerus chest
weapon_bone chest
Bip01_Head Bip01_Neck
eye_left_bone Bip01_Head
eye_right_bone Bip01_Head
L_forearm L_humerus
L_front_hand L_forearm
L_weapon_bone L_forearm
L_front_hand01_01 L_front_hand
L_front_hand02_01 L_front_hand
L_front_hand03_01 L_front_hand
L_front_hand01_02 L_front_hand01_01
L_front_hand02_02 L_front_hand02_01
L_front_hand03_02 L_front_hand03_01
R_forearm R_humerus
R_front_hand R_forearm
R_weapon_bone R_forearm
R_front_hand01_01 R_front_hand
R_front_hand02_01 R_front_hand
R_front_hand03_01 R_front_hand
R_front_hand01_02 R_front_hand01_01
R_front_hand02_02 R_front_hand02_01
R_front_hand03_02 R_front_hand03_01
null_rope01_connect L_mid_tent01
Rope1_Seg01 null_rope01_connect
Rope1_Seg02 Rope1_Seg01
Rope1_Seg03 Rope1_Seg02
Rope1_Seg04 Rope1_Seg03
Rope1_Seg05 Rope1_Seg04
Rope1_Seg06 Rope1_Seg05
Rope1_Seg07 Rope1_Seg06
Rope1_Seg09 Rope1_Seg07
L_mid_hand01 Rope1_Seg09
L_mid_hand02 Rope1_Seg09
L_mid_hand03 Rope1_Seg09
null_rope02_connect R_mid_tent01
Rope2_Seg01 null_rope02_connect
Rope2_Seg02 Rope2_Seg01
Rope2_Seg03 Rope2_Seg02
Rope2_Seg04 Rope2_Seg03
Rope2_Seg05 Rope2_Seg04
Rope2_Seg06 Rope2_Seg05
Rope2_Seg07 Rope2_Seg06
Rope2_Seg09 Rope2_Seg07
R_mid_hand01 Rope2_Seg09
R_mid_hand02 Rope2_Seg09
R_mid_hand03 Rope2_Seg09
spine02 spine01
spine03 spine02
pelvis spine03
null_rope03_connect pelvis
null_rope04_connect pelvis
Rope3_Seg01 null_rope03_connect
Rope3_Seg02 Rope3_Seg01
Rope3_Seg03 Rope3_Seg02
Rope3_Seg04 Rope3_Seg03
Rope3_Seg05 Rope3_Seg04
Rope3_Seg06 Rope3_Seg05
Rope3_Seg07 Rope3_Seg06
Rope3_Seg08 Rope3_Seg07
Rope3_Seg09 Rope3_Seg08
R_rear_hand01 Rope3_Seg09
R_rear_hand02 Rope3_Seg09
R_rear_hand03 Rope3_Seg09
Rope4_Seg01 null_rope04_connect
Rope4_Seg02 Rope4_Seg01
Rope4_Seg03 Rope4_Seg02
Rope4_Seg04 Rope4_Seg03
Rope4_Seg05 Rope4_Seg04
Rope4_Seg06 Rope4_Seg05
Rope4_Seg07 Rope4_Seg06
Rope4_Seg08 Rope4_Seg07
Rope4_Seg09 Rope4_Seg08
L_rear_hand01 Rope4_Seg09
L_rear_hand02 Rope4_Seg09
L_rear_hand03 Rope4_Seg09
[BasePosition]
#SegmentName Tx, Ty, Tz, Rx, Ry, Rz, BoneLength
MASTER 0.000000 0.000000 0.000000 -90.000000 0.000000 0.000000 10.000000 
root 0.000000 0.000000 0.000000 0.000000 0.000000 0.000000 10.000000 
chest 0.000000 0.000000 0.000000 0.000000 0.000000 0.000000 10.000000 
L_mid_tent01 0.000000 0.000000 0.000000 0.000000 0.000000 0.000000 10.000000 
R_mid_tent01 0.000000 0.000000 0.000000 0.000000 0.000000 0.000000 10.000000 
spine01 0.000000 0.000000 0.000000 0.000000 0.000000 0.000000 10.000000 
Bip01_Neck 0.000000 0.000000 0.000000 0.000000 0.000000 0.000000 10.000000 
L_humerus 0.000000 0.000000 0.000000 0.000000 0.000000 0.000000 10.000000 
R_humerus 0.000000 0.000000 0.000000 0.000000 0.000000 0.000000 10.000000 
weapon_bone 0.000000 0.000000 0.000000 0.000000 0.000000 0.000000 10.000000 
Bip01_Head 0.000000 0.000000 0.000000 0.000000 0.000000 0.000000 10.000000 
eye_left_bone 0.000000 0.000000 0.000000 0.000000 0.000000 0.000000 10.000000 
eye_right_bone 0.000000 0.000000 0.000000 0.000000 0.000000 0.000000 10.000000 
L_forearm 0.000000 0.000000 0.000000 0.000000 0.000000 0.000000 10.000000 
L_front_hand 0.000000 0.000000 0.000000 0.000000 0.000000 0.000000 10.000000 
L_weapon_bone 0.000000 0.000000 0.000000 0.000000 0.000000 0.000000 10.000000 
L_front_hand01_01 0.000000 0.000000 0.000000 0.000000 0.000000 0.000000 10.000000 
L_front_hand02_01 0.000000 0.000000 0.000000 0.000000 0.000000 0.000000 10.000000 
L_front_hand03_01 0.000000 0.000000 0.000000 0.000000 0.000000 0.000000 10.000000 
L_front_hand01_02 0.000000 0.000000 0.000000 0.000000 0.000000 0.000000 10.000000 
L_front_hand02_02 0.000000 0.000000 0.000000 0.000000 0.000000 0.000000 10.000000 
L_front_hand03_02 0.000000 0.000000 0.000000 0.000000 0.000000 0.000000 10.000000 
R_forearm 0.000000 0.000000 0.000000 0.000000 0.000000 0.000000 10.000000 
R_front_hand 0.000000 0.000000 0.000000 0.000000 0.000000 0.000000 10.000000 
R_weapon_bone 0.000000 0.000000 0.000000 0.000000 0.000000 0.000000 10.000000 
R_front_hand01_01 0.000000 0.000000 0.000000 0.000000 0.000000 0.000000 10.000000 
R_front_hand02_01 0.000000 0.000000 0.000000 0.000000 0.000000 0.000000 10.000000 
R_front_hand03_01 0.000000 0.000000 0.000000 0.000000 0.000000 0.000000 10.000000 
R_front_hand01_02 0.000000 0.000000 0.000000 0.000000 0.000000 0.000000 10.000000 
R_front_hand02_02 0.000000 0.000000 0.000000 0.000000 0.000000 0.000000 10.000000 
R_front_hand03_02 0.000000 0.000000 0.000000 0.000000 0.000000 0.000000 10.000000 
null_rope01_connect 0.000000 0.000000 0.000000 0.000000 0.000000 0.000000 10.000000 
Rope1_Seg01 0.000000 0.000000 0.000000 0.000000 0.000000 0.000000 10.000000 
Rope1_Seg02 0.000000 0.000000 0.000000 0.000000 0.000000 0.000000 10.000000 
Rope1_Seg03 0.000000 0.000000 0.000000 0.000000 0.000000 0.000000 10.000000 
Rope1_Seg04 0.000000 0.000000 0.000000 0.000000 0.000000 0.000000 10.000000 
Rope1_Seg05 0.000000 0.000000 0.000000 0.000000 0.000000 0.000000 10.000000 
Rope1_Seg06 0.000000 0.000000 0.000000 0.000000 0.000000 0.000000 10.000000 
Rope1_Seg07 0.000000 0.000000 0.000000 0.000000 0.000000 0.000000 10.000000 
Rope1_Seg09 0.000000 0.000000 0.000000 0.000000 0.000000 0.000000 10.000000 
L_mid_hand01 0.000000 0.000000 0.000000 0.000000 0.000000 0.000000 10.000000 
L_mid_hand02 0.000000 0.000000 0.000000 0.000000 0.000000 0.000000 10.000000 
L_mid_hand03 0.000000 0.000000 0.000000 0.000000 0.000000 0.000000 10.000000 
null_rope02_connect 0.000000 0.000000 0.000000 0.000000 0.000000 0.000000 10.000000 
Rope2_Seg01 0.000000 0.000000 0.000000 0.000000 0.000000 0.000000 10.000000 
Rope2_Seg02 0.000000 0.000000 0.000000 0.000000 0.000000 0.000000 10.000000 
Rope2_Seg03 0.000000 0.000000 0.000000 0.000000 0.000000 0.000000 10.000000 
Rope2_Seg04 0.000000 0.000000 0.000000 0.000000 0.000000 0.000000 10.000000 
Rope2_Seg05 0.000000 0.000000 0.000000 0.000000 0.000000 0.000000 10.000000 
Rope2_Seg06 0.000000 0.000000 0.000000 0.000000 0.000000 0.000000 10.000000 
Rope2_Seg07 0.000000 0.000000 0.000000 0.000000 0.000000 0.000000 10.000000 
Rope2_Seg09 0.000000 0.000000 0.000000 0.000000 0.000000 0.000000 10.000000 
R_mid_hand01 0.000000 0.000000 0.000000 0.000000 0.000000 0.000000 10.000000 
R_mid_hand02 0.000000 0.000000 0.000000 0.000000 0.000000 0.000000 10.000000 
R_mid_hand03 0.000000 0.000000 0.000000 0.000000 0.000000 0.000000 10.000000 
spine02 0.000000 0.000000 0.000000 0.000000 0.000000 0.000000 10.000000 
spine03 0.000000 0.000000 0.000000 0.000000 0.000000 0.000000 10.000000 
pelvis 0.000000 0.000000 0.000000 0.000000 0.000000 0.000000 10.000000 
null_rope03_connect 0.000000 0.000000 0.000000 0.000000 0.000000 0.000000 10.000000 
null_rope04_connect 0.000000 0.000000 0.000000 0.000000 0.000000 0.000000 10.000000 
Rope3_Seg01 0.000000 0.000000 0.000000 0.000000 0.000000 0.000000 10.000000 
Rope3_Seg02 0.000000 0.000000 0.000000 0.000000 0.000000 0.000000 10.000000 
Rope3_Seg03 0.000000 0.000000 0.000000 0.000000 0.000000 0.000000 10.000000 
Rope3_Seg04 0.000000 0.000000 0.000000 0.000000 0.000000 0.000000 10.000000 
Rope3_Seg05 0.000000 0.000000 0.000000 0.000000 0.000000 0.000000 10.000000 
Rope3_Seg06 0.000000 0.000000 0.000000 0.000000 0.000000 0.000000 10.000000 
Rope3_Seg07 0.000000 0.000000 0.000000 0.000000 0.000000 0.000000 10.000000 
Rope3_Seg08 0.000000 0.000000 0.000000 0.000000 0.000000 0.000000 10.000000 
Rope3_Seg09 0.000000 0.000000 0.000000 0.000000 0.000000 0.000000 10.000000 
R_rear_hand01 0.000000 0.000000 0.000000 0.000000 0.000000 0.000000 10.000000 
R_rear_hand02 0.000000 0.000000 0.000000 0.000000 0.000000 0.000000 10.000000 
R_rear_hand03 0.000000 0.000000 0.000000 0.000000 0.000000 0.000000 10.000000 
Rope4_Seg01 0.000000 0.000000 0.000000 0.000000 0.000000 0.000000 10.000000 
Rope4_Seg02 0.000000 0.000000 0.000000 0.000000 0.000000 0.000000 10.000000 
Rope4_Seg03 0.000000 0.000000 0.000000 0.000000 0.000000 0.000000 10.000000 
Rope4_Seg04 0.000000 0.000000 0.000000 0.000000 0.000000 0.000000 10.000000 
Rope4_Seg05 0.000000 0.000000 0.000000 0.000000 0.000000 0.000000 10.000000 
Rope4_Seg06 0.000000 0.000000 0.000000 0.000000 0.000000 0.000000 10.000000 
Rope4_Seg07 0.000000 0.000000 0.000000 0.000000 0.000000 0.000000 10.000000 
Rope4_Seg08 0.000000 0.000000 0.000000 0.000000 0.000000 0.000000 10.000000 
Rope4_Seg09 0.000000 0.000000 0.000000 0.000000 0.000000 0.000000 10.000000 
L_rear_hand01 0.000000 0.000000 0.000000 0.000000 0.000000 0.000000 10.000000 
L_rear_hand02 0.000000 0.000000 0.000000 0.000000 0.000000 0.000000 10.000000 
L_rear_hand03 0.000000 0.000000 0.000000 0.000000 0.000000 0.000000 10.000000 
#Beginning of Data. Separated by tabs
#Fr	Tx	Ty	Tz	Rx	Ry	Rz	SF
[MASTER]
10 0.000000 0.000000 0.000000 0.001660 0.001660 0.001660 0.000000
11 0.000000 0.000000 0.000000 0.001660 0.001660 0.001660 0.000000
[root]
10 -17.508532 -143.421143 1138.551758 -87.221832 -48.369877 -91.086990 1147.682983
11 -17.797560 -132.732803 1147.624512 -87.485077 -47.617485 -90.969543 1155.411987
[chest]
10 -84.512650 -34.090519 0.000000 2.369051 -1.891087 -121.843552 91.129311
11 -84.512650 -34.090519 0.000000 2.348356 -1.931686 -122.183342 91.129311
[L_mid_tent01]
10 27.398346 22.120878 -250.551880 -19.238922 -6.068728 98.378288 253.014313
11 27.398405 22.120852 -250.552124 -19.114866 -7.134582 93.854813 253.014572
[R_mid_tent01]
10 23.228794 24.509907 226.238495 -171.674637 4.710301 92.280495 228.744751
11 23.228794 24.509907 226.238495 -171.378006 5.080312 88.509666 228.744751
[spine01]
10 -0.361383 -0.195265 0.000000 0.001945 0.001313 21.944370 0.410763
11 -0.361383 -0.195265 0.000000 0.001945 0.001314 21.890623 0.410763
[Bip01_Neck]
10 165.484543 71.581718 0.000119 175.896118 1.177290 24.871181 180.302734
11 165.484543 71.581718 0.000119 175.896118 1.177290 24.871185 180.302734
[L_humerus]
10 -13.983130 -135.272980 -120.471481 -90.978691 0.800876 -177.834854 181.680161
11 -13.983130 -135.272980 -120.471481 -91.519402 0.732554 -176.651596 181.680161
[R_humerus]
10 -13.983309 -135.273102 125.287651 103.000740 1.729733 -169.272232 184.909012
11 -13.983309 -135.273102 125.287651 103.000740 1.729733 -169.272232 184.909012
[weapon_bone]
10 235.964890 -300.705902 0.000000 0.000000 -89.951546 -128.212341 382.234833
11 235.964890 -300.705902 0.000000 0.000000 -89.951546 -128.212341 382.234833
[Bip01_Head]
10 102.819809 23.735483 5.410349 3.150732 3.423702 -20.839094 105.662468
11 102.819801 23.735487 5.410344 3.150732 3.423701 -20.839092 105.662468
[eye_left_bone]
10 -24.626970 125.451866 -64.772606 0.000000 -90.000000 -99.840431 143.318359
11 -24.626970 125.451866 -64.772606 0.000000 -90.000000 -99.840431 143.318359
[eye_right_bone]
10 -24.626970 125.451866 64.327362 0.000000 -89.960434 80.159386 143.117676
11 -24.626970 125.451866 64.327362 0.000000 -89.960434 80.159386 143.117676
[L_forearm]
10 322.776093 0.000000 -0.000119 0.000022 0.002347 -88.941734 322.776093
11 322.776093 0.000000 -0.000119 0.000025 0.002347 -88.789352 322.776093
[L_front_hand]
10 241.149185 -0.042021 -3.300071 -177.736526 -0.147809 -77.698769 241.171753
11 241.149185 -0.042021 -3.300071 -177.736618 -0.149439 -77.616264 241.171753
[L_weapon_bone]
10 156.183838 0.000000 0.000000 0.002069 0.001109 33.607628 156.183838
11 156.183838 0.000000 0.000000 0.002099 0.001050 36.876907 156.183838
[L_front_hand01_01]
10 86.095154 20.947098 -0.655860 0.405585 -0.442306 -4.620490 88.609184
11 86.095154 20.947098 -0.655860 0.405585 -0.442306 -4.620490 88.609184
[L_front_hand02_01]
10 86.935165 -11.437475 24.513514 116.959450 3.630817 1.495453 91.046425
11 86.935165 -11.437475 24.513514 116.959450 3.630817 1.495453 91.046425
[L_front_hand03_01]
10 86.637497 -14.123976 -20.424902 -118.420097 -4.656303 -0.152527 90.126129
11 86.637497 -14.123976 -20.424902 -118.420097 -4.656304 -0.152527 90.126129
[L_front_hand01_02]
10 71.020905 -0.000179 0.000030 0.001534 0.001777 -8.378850 71.020905
11 71.020905 -0.000179 0.000030 0.001534 0.001777 -8.378848 71.020905
[L_front_hand02_02]
10 71.020927 -0.000119 0.000060 0.001534 0.001777 -8.378850 71.020927
11 71.020927 -0.000119 0.000060 0.001534 0.001777 -8.378848 71.020927
[L_front_hand03_02]
10 71.020905 -0.000060 0.000060 0.001534 0.001777 -8.378850 71.020905
11 71.020905 -0.000060 0.000060 0.001534 0.001777 -8.378848 71.020905
[R_forearm]
10 322.776428 -0.000060 0.000030 0.209841 -0.001058 -90.704071 322.776428
11 322.776428 -0.000060 0.000030 0.213299 0.003635 -91.334946 322.776428
[R_front_hand]
10 238.847015 -0.006795 2.210259 -1.694539 -0.335963 -89.974274 238.857239
11 238.847015 -0.006795 2.210259 -1.697447 -0.323319 -89.554398 238.857239
[R_weapon_bone]
10 155.664093 0.002503 -0.000030 0.002895 0.002273 -129.860321 155.664078
11 155.664093 0.002503 -0.000030 0.002819 0.002367 -133.648300 155.664078
[R_front_hand01_01]
10 87.624611 14.231146 22.918642 -116.960213 3.496675 -1.324139 91.683487
11 87.624611 14.231146 22.918642 -116.960205 3.496675 -1.324138 91.683487
[R_front_hand02_01]
10 89.356956 14.367283 -19.491137 118.419647 -4.257089 0.609827 92.579636
11 89.356956 14.367283 -19.491137 118.419647 -4.257089 0.609827 92.579636
[R_front_hand03_01]
10 87.286232 -22.307278 -0.143439 -0.387970 -0.231462 4.232001 90.091743
11 87.286232 -22.307278 -0.143439 -0.387970 -0.231462 4.232001 90.091743
[R_front_hand01_02]
10 71.020905 0.000060 0.000119 0.001777 0.001534 8.377220 71.020905
11 71.020905 0.000060 0.000119 0.001777 0.001534 8.377220 71.020905
[R_front_hand02_02]
10 71.020844 -0.000030 -0.000119 0.001777 0.001534 8.377220 71.020836
11 71.020844 -0.000030 -0.000119 0.001777 0.001534 8.377220 71.020836
[R_front_hand03_02]
10 71.020905 0.000000 0.000030 0.001777 0.001534 8.377220 71.020905
11 71.020905 0.000000 0.000030 0.001777 0.001534 8.377220 71.020905
[null_rope01_connect]
10 328.732483 0.000000 -0.000238 107.525513 -69.570320 -66.118500 328.732483
11 328.732483 0.000000 -0.000238 108.958984 -69.437935 -63.641407 328.732483
[Rope1_Seg01]
10 0.000000 0.000000 0.000000 119.700653 21.073851 166.572342 0.000000
11 0.000000 0.000000 0.000000 119.850372 20.955791 167.419693 0.000000
[Rope1_Seg02]
10 139.999863 -0.000179 0.000000 -12.758422 -31.140070 43.816547 139.999863
11 139.999863 -0.000179 0.000000 -7.598155 -25.474215 32.684891 139.999863
[Rope1_Seg03]
10 139.999924 0.000060 -0.000060 -11.128579 -25.570374 27.489183 139.999924
11 139.999924 0.000060 -0.000060 -18.493027 -33.045795 31.994116 139.999924
[Rope1_Seg04]
10 139.999924 -0.000060 -0.000119 87.178719 7.062398 37.804142 139.999924
11 139.999924 -0.000060 -0.000119 82.695786 1.430691 37.705448 139.999924
[Rope1_Seg05]
10 139.999832 0.000119 -0.000060 15.656455 29.445168 -5.051910 139.999832
11 139.999832 0.000119 -0.000060 23.463200 32.451111 -0.996039 139.999832
[Rope1_Seg06]
10 139.999954 0.000119 -0.000060 2.234941 9.598154 -3.742948 139.999954
11 139.999954 0.000119 -0.000060 2.809322 9.894103 -3.484981 139.999954
[Rope1_Seg07]
10 139.999985 0.000060 0.000000 0.808716 4.816264 -2.117781 139.999985
11 139.999985 0.000060 0.000000 1.001509 4.843492 -1.995610 139.999985
[Rope1_Seg09]
10 121.602913 0.000119 -0.000089 -89.793175 -1.359789 0.847147 121.602913
11 121.602913 0.000119 -0.000089 -89.793175 -1.359789 0.847147 121.602913
[L_mid_hand01]
10 103.859421 1.038730 8.195221 104.352028 0.341479 -0.444583 104.187431
11 103.859421 1.038730 8.195221 104.352036 0.341479 -0.444583 104.187431
[L_mid_hand02]
10 105.572853 -4.139662 -10.864139 -135.608444 3.905687 -3.381056 106.211075
11 105.572853 -4.139662 -10.864139 -135.608444 3.905687 -3.381056 106.211075
[L_mid_hand03]
10 104.641464 17.579376 -3.913581 -18.761515 -0.324361 2.942912 106.179977
11 104.641464 17.579376 -3.913581 -18.761518 -0.324361 2.942912 106.179977
[null_rope02_connect]
10 328.732849 0.000179 -0.000119 119.344879 80.635880 -106.936653 328.732849
11 328.732849 0.000179 -0.000119 119.765144 80.114754 -109.572464 328.732849
[Rope2_Seg01]
10 0.000076 0.000110 0.000153 -61.728409 34.068047 24.582125 0.000203
11 0.000076 0.000110 0.000153 -62.604107 30.685240 18.767256 0.000203
[Rope2_Seg02]
10 139.999741 -0.000060 -0.000119 5.002092 -37.390018 -3.536486 139.999756
11 139.999741 -0.000060 -0.000119 3.743632 -28.466087 0.619078 139.999756
[Rope2_Seg03]
10 140.000107 0.000030 0.000000 -9.090858 -41.884968 0.003661 140.000107
11 140.000107 0.000030 0.000000 -8.036187 -44.440807 11.953981 140.000107
[Rope2_Seg04]
10 139.999802 0.000000 -0.000060 -29.249554 -24.012781 -35.674980 139.999802
11 139.999802 0.000000 -0.000060 -29.149336 -31.050280 -32.931110 139.999802
[Rope2_Seg05]
10 139.999985 -0.000060 0.000119 -11.628739 -0.510648 -20.634813 139.999985
11 139.999985 -0.000060 0.000119 -15.204485 -2.220708 -23.757595 139.999985
[Rope2_Seg06]
10 139.999893 -0.000030 -0.000119 -3.407967 1.129015 -8.282617 139.999893
11 139.999893 -0.000030 -0.000119 -4.034738 0.834390 -8.607220 139.999893
[Rope2_Seg07]
10 139.999893 0.000060 -0.000060 -1.001280 0.551062 -2.802836 139.999893
11 139.999893 0.000060 -0.000060 -1.309766 0.538926 -3.209977 139.999893
[Rope2_Seg09]
10 121.338966 0.000089 -0.000060 33.793236 -1.359788 -0.847141 121.338966
11 121.338966 0.000089 -0.000060 33.793236 -1.359788 -0.847141 121.338966
[R_mid_hand01]
10 104.680779 11.144459 -10.335981 -47.384243 2.963521 5.452602 105.778534
11 104.680779 11.144459 -10.335981 -47.384266 2.963523 5.452605 105.778534
[R_mid_hand02]
10 104.070427 2.443552 8.231699 75.626305 -2.250001 1.111093 104.424065
11 104.070427 2.443552 8.231699 75.626297 -2.250001 1.111093 104.424065
[R_mid_hand03]
10 106.028137 -11.221827 -5.996406 -164.381927 2.495983 -6.140520 106.788818
11 106.028137 -11.221827 -5.996406 -164.381927 2.495984 -6.140522 106.788818
[spine02]
10 129.756927 0.001550 0.000119 -2.689107 -3.438935 32.149315 129.756927
11 129.756927 0.001550 0.000119 -2.541634 -3.500311 29.769135 129.756927
[spine03]
10 79.068085 0.008194 -0.464526 4.529345 6.776021 43.113434 79.069450
11 79.062805 0.009104 -0.516140 4.348455 6.520610 41.189465 79.064491
[pelvis]
10 169.435242 0.051022 0.000000 -6.884603 -2.843979 13.345468 169.435257
11 169.435242 0.051022 0.000000 -6.789485 -2.828193 13.156916 169.435257
[null_rope03_connect]
10 -1.257226 -2.466202 137.391083 128.383881 -84.629913 -100.034019 137.418976
11 -1.257226 -2.466202 137.391083 128.987457 -84.689644 -96.866730 137.418976
[null_rope04_connect]
10 -1.259640 -2.480268 -137.844437 128.383881 -84.629913 -100.034019 137.872513
11 -1.259640 -2.480268 -137.844437 128.987457 -84.689644 -96.866730 137.872513
[Rope3_Seg01]
10 0.000045 0.000126 0.000000 -162.044708 66.092369 -101.380646 0.000134
11 0.000045 0.000123 0.000000 -158.453857 63.396923 -98.831688 0.000131
[Rope3_Seg02]
10 139.999924 -0.000119 0.000060 -10.883434 -16.866926 12.075083 139.999924
11 139.999924 -0.000119 0.000060 -10.948271 -16.544863 12.674773 139.999924
[Rope3_Seg03]
10 139.999924 -0.000119 0.000119 -29.096712 -47.692310 30.786713 139.999924
11 139.999924 -0.000119 0.000119 -32.208157 -48.348511 34.298595 139.999924
[Rope3_Seg04]
10 139.999924 0.000119 0.000000 -1.926462 -28.205996 5.618145 139.999924
11 139.999924 0.000119 0.000000 -2.472515 -29.582283 6.453921 139.999924
[Rope3_Seg05]
10 139.999924 -0.000238 0.000060 -1.468348 -66.697983 29.883905 139.999924
11 139.999924 -0.000238 0.000060 -5.696199 -67.648544 34.935444 139.999924
[Rope3_Seg06]
10 139.999893 -0.000119 -0.000060 8.555620 -28.570425 18.688440 139.999893
11 139.999893 -0.000119 -0.000060 7.478690 -24.451527 15.962269 139.999893
[Rope3_Seg07]
10 139.999771 0.000060 -0.000119 2.602345 -5.000350 4.781748 139.999771
11 139.999771 0.000060 -0.000119 2.477546 -4.912176 4.417161 139.999771
[Rope3_Seg08]
10 139.999985 -0.000060 0.000000 1.427470 -2.056817 2.152789 139.999985
11 139.999985 -0.000060 0.000000 1.399775 -2.067935 2.029454 139.999985
[Rope3_Seg09]
10 90.185997 -0.000179 -0.000060 89.793228 -1.359877 -0.847183 90.185997
11 90.185997 -0.000179 -0.000060 89.793228 -1.359877 -0.847183 90.185997
[R_rear_hand01]
10 103.366196 -6.073594 -10.757982 -156.049316 6.070418 -2.795868 104.101845
11 103.366196 -6.073594 -10.757982 -156.049316 6.070419 -2.795869 104.101845
[R_rear_hand02]
10 100.509819 12.039542 -7.992327 -38.708435 1.958051 5.461186 101.543350
11 100.509819 12.039542 -7.992327 -38.708439 1.958052 5.461187 101.543350
[R_rear_hand03]
10 101.539970 5.215704 5.435467 84.307625 -2.361032 4.099037 101.819031
11 101.539970 5.215704 5.435467 84.307625 -2.361032 4.099037 101.819031
[Rope4_Seg01]
10 0.000000 0.000043 -0.000126 82.035645 73.242805 -77.567856 0.000133
11 0.000000 0.000040 -0.000123 82.877312 71.616394 -76.068634 0.000129
[Rope4_Seg02]
10 139.999985 0.000060 0.000119 4.393711 4.295828 -11.398040 139.999985
11 139.999985 0.000060 0.000119 4.295652 3.918759 -10.448932 139.999985
[Rope4_Seg03]
10 139.999924 0.000000 -0.000238 6.444391 11.574326 -46.574924 139.999924
11 139.999924 0.000000 -0.000238 7.343316 11.316391 -45.654991 139.999924
[Rope4_Seg04]
10 139.999985 0.000000 0.000119 -2.999282 2.880912 -43.141563 139.999985
11 139.999985 0.000000 0.000119 -3.123778 2.481315 -46.901814 139.999985
[Rope4_Seg05]
10 139.999802 -0.000060 -0.000119 -17.940222 5.928977 -49.376026 139.999802
11 139.999802 -0.000060 -0.000119 -19.952766 6.335420 -51.476151 139.999802
[Rope4_Seg06]
10 139.999924 0.000000 0.000060 -25.077869 17.001736 -45.714329 139.999924
11 139.999924 0.000000 0.000060 -22.872320 17.169630 -41.193413 139.999924
[Rope4_Seg07]
10 139.999802 0.000000 0.000000 -3.014334 6.518478 -7.613317 139.999802
11 139.999802 0.000000 0.000000 -2.830791 6.226898 -7.172307 139.999802
[Rope4_Seg08]
10 139.999924 0.000000 0.000119 -2.446970 2.711514 -2.879496 139.999924
11 139.999924 0.000000 0.000119 -2.423519 2.649540 -2.792199 139.999924
[Rope4_Seg09]
10 90.185791 0.000060 0.000060 -135.617828 2.228885 0.850567 90.185791
11 90.185791 0.000060 0.000060 -135.617828 2.228885 0.850567 90.185791
[L_rear_hand01]
10 101.696655 -8.392275 -7.654577 -38.746338 0.246096 177.290207 102.329041
11 101.696655 -8.392275 -7.654577 -38.746349 0.246096 177.290207 102.329041
[L_rear_hand02]
10 102.726799 -1.568258 5.773216 84.315155 -1.142796 176.247437 102.900848
11 102.726799 -1.568258 5.773216 84.315163 -1.142796 176.247437 102.900848
[L_rear_hand03]
10 104.552910 9.721220 -10.420293 -155.747955 -4.630844 179.564758 105.519653
11 104.552910 9.721220 -10.420293 -155.747955 -4.630845 179.564758 105.519653
